<?xml version="1.0" encoding="utf-8"?>
<svg xmlns="http://www.w3.org/2000/svg" fill="none" viewBox="0 0 24 24" stroke-width="1.5" stroke="currentColor" class="size-6">
  <path stroke-linecap="round" stroke-linejoin="round" d="M 9 6.75 C 8.422 6.75 8.061 6.125 8.35 5.625 C 8.484 5.393 8.732 5.25 9 5.25 C 9.577 5.25 9.938 5.875 9.649 6.375 C 9.515 6.607 9.268 6.75 9 6.75 Z M 9 12.75 C 8.422 12.75 8.061 12.125 8.35 11.625 C 8.484 11.393 8.732 11.25 9 11.25 C 9.577 11.25 9.938 11.875 9.649 12.375 C 9.515 12.607 9.268 12.75 9 12.75 Z M 9 18.75 C 8.422 18.75 8.061 18.125 8.35 17.625 C 8.484 17.393 8.732 17.25 9 17.25 C 9.577 17.25 9.938 17.875 9.649 18.375 C 9.515 18.607 9.268 18.75 9 18.75 Z"/>
  <path stroke-linecap="round" stroke-linejoin="round" d="M 9 6.75 C 8.422 6.75 8.061 6.125 8.35 5.625 C 8.484 5.393 8.732 5.25 9 5.25 C 9.577 5.25 9.938 5.875 9.649 6.375 C 9.515 6.607 9.268 6.75 9 6.75 Z M 9 12.75 C 8.422 12.75 8.061 12.125 8.35 11.625 C 8.484 11.393 8.732 11.25 9 11.25 C 9.577 11.25 9.938 11.875 9.649 12.375 C 9.515 12.607 9.268 12.75 9 12.75 Z M 9 18.75 C 8.422 18.75 8.061 18.125 8.35 17.625 C 8.484 17.393 8.732 17.25 9 17.25 C 9.577 17.25 9.938 17.875 9.649 18.375 C 9.515 18.607 9.268 18.75 9 18.75 Z"/>
  <path stroke-linecap="round" stroke-linejoin="round" d="M 15 6.75 C 14.422 6.75 14.061 6.125 14.35 5.625 C 14.484 5.393 14.732 5.25 15 5.25 C 15.577 5.25 15.938 5.875 15.649 6.375 C 15.515 6.607 15.268 6.75 15 6.75 Z M 15 12.75 C 14.422 12.75 14.061 12.125 14.35 11.625 C 14.484 11.393 14.732 11.25 15 11.25 C 15.577 11.25 15.938 11.875 15.649 12.375 C 15.515 12.607 15.268 12.75 15 12.75 Z M 15 18.75 C 14.422 18.75 14.061 18.125 14.35 17.625 C 14.484 17.393 14.732 17.25 15 17.25 C 15.577 17.25 15.938 17.875 15.649 18.375 C 15.515 18.607 15.268 18.75 15 18.75 Z"/>
  <path stroke-linecap="round" stroke-linejoin="round" d="M 15 6.75 C 14.422 6.75 14.061 6.125 14.35 5.625 C 14.484 5.393 14.732 5.25 15 5.25 C 15.577 5.25 15.938 5.875 15.649 6.375 C 15.515 6.607 15.268 6.75 15 6.75 Z M 15 12.75 C 14.422 12.75 14.061 12.125 14.35 11.625 C 14.484 11.393 14.732 11.25 15 11.25 C 15.577 11.25 15.938 11.875 15.649 12.375 C 15.515 12.607 15.268 12.75 15 12.75 Z M 15 18.75 C 14.422 18.75 14.061 18.125 14.35 17.625 C 14.484 17.393 14.732 17.25 15 17.25 C 15.577 17.25 15.938 17.875 15.649 18.375 C 15.515 18.607 15.268 18.75 15 18.75 Z"/>
</svg>